<svg width="128" height="128" viewBox="0 0 128 128" fill="none" xmlns="http://www.w3.org/2000/svg">
<g clip-path="url(#clip0_3_2)">
<path d="M16 0C7.14 0 0 7.13 0 15.99V111.97C0 120.83 7.13 127.96 16 127.96H112C120.86 127.96 128 120.83 128 111.97V15.99C128 7.14 120.86 0 112 0H16Z" fill="white"/>
<path d="M16 0C7.14 0 0 7.13 0 15.99V111.97C0 120.83 7.13 127.96 16 127.96H112C120.86 127.96 128 120.83 128 111.97V15.99C128 7.14 120.86 0 112 0H16ZM16 4H112C118.64 4 124 9.35 124 15.99V111.97C124 118.61 118.65 123.96 112 123.96H16C9.36 123.96 4 118.61 4 111.97V15.99C4 9.35 9.36 4 16 4Z" fill="#003397"/>
<g clip-path="url(#clip1_3_2)">
<path fill-rule="evenodd" clip-rule="evenodd" d="M33.0224 52.6254C32.7052 52.2932 32.3875 51.9578 32.0694 51.6192L33.6305 45.9112C33.7066 45.8245 33.8302 45.7233 34.0014 45.6077C34.1821 45.4824 34.3771 45.362 34.5864 45.2464C34.8051 45.1211 35.0096 45.0199 35.1998 44.9429C35.3901 44.8561 35.5375 44.8128 35.6421 44.8128C35.7753 44.8128 35.956 44.8561 36.1842 44.9429C36.422 45.0199 36.6645 45.1259 36.9118 45.2608C37.1591 45.3861 37.3589 45.521 37.511 45.6655L39.3657 53.8318C39.3942 53.957 39.437 54.0438 39.4941 54.0919C39.5512 54.1401 39.6368 54.1738 39.7507 54.1931L40.607 54.2943C40.6356 54.3328 40.6594 54.381 40.6784 54.4388C40.7069 54.4966 40.7259 54.5882 40.7354 54.7134C40.6591 54.7905 40.5497 54.8724 40.4073 54.9591C40.2646 55.0362 40.1172 55.0989 39.965 55.147C39.8129 55.1952 39.6796 55.2193 39.5654 55.2193C39.4989 55.2193 39.3514 55.2049 39.1232 55.176C38.9044 55.147 38.6476 55.1133 38.3528 55.0748L37.4682 54.9302C37.1734 54.8821 36.9118 54.8339 36.6836 54.7857C36.4553 54.7375 36.2984 54.699 36.2128 54.6701C36.2128 54.5641 36.2318 54.4725 36.2698 54.3955C36.3079 54.3087 36.3364 54.2509 36.3554 54.222L36.7549 54.2076C36.9071 54.1979 37.0307 54.1738 37.1258 54.1353C37.2305 54.0871 37.297 53.9956 37.3256 53.8607C37.3636 53.7258 37.3541 53.5282 37.297 53.2681L36.8262 51.1145H33.4165L33.0224 52.6254ZM93.2068 53.4277C92.8447 53.802 92.483 54.1723 92.1222 54.5382C91.9983 54.4602 91.8859 54.3837 91.7854 54.3087C91.6047 54.1738 91.4906 54.0727 91.443 54.0052C91.3194 53.8221 91.2195 53.5475 91.1434 53.1814C91.0769 52.8152 91.0436 52.4201 91.0436 51.9962C91.0436 51.63 91.0578 51.2735 91.0864 50.9266C91.1244 50.5701 91.172 50.2473 91.229 49.9582C91.2861 49.6692 91.3432 49.4379 91.4002 49.2645C91.5334 49.1777 91.7189 49.0621 91.9566 48.9176C92.2039 48.773 92.4798 48.6333 92.7841 48.4984C93.0885 48.3539 93.3976 48.2334 93.7114 48.1371C94.0348 48.0407 94.3392 47.9925 94.6245 47.9925C94.7957 47.9925 95.005 48.0455 95.2522 48.1515C95.509 48.2479 95.7468 48.3683 95.9656 48.5129C96.1938 48.6574 96.3508 48.7875 96.4364 48.9031C96.4839 48.9898 96.5267 49.144 96.5648 49.3656C96.5945 49.4987 96.6189 49.6355 96.6376 49.7761C95.976 50.5009 95.3164 51.2115 94.6587 51.9082C94.4165 51.9413 94.1484 51.9706 93.8541 51.9962C93.5307 52.0154 93.1883 52.0299 92.8269 52.0395C92.8459 52.3479 92.8697 52.6177 92.8982 52.8489C92.9363 53.0706 92.9696 53.2055 92.9981 53.2536C93.0266 53.2825 93.0885 53.3355 93.1836 53.4126C93.1913 53.4174 93.199 53.4226 93.2068 53.4277ZM42.797 37.7257C43.2345 37.745 43.5864 37.7546 43.8527 37.7546C43.9288 37.7546 44.0334 37.7161 44.1666 37.639C44.3092 37.5619 44.4472 37.4752 44.5803 37.3788C44.7135 37.2728 44.8086 37.1813 44.8656 37.1042C44.9037 36.8826 44.9417 36.6176 44.9798 36.3093C45.0178 35.9913 45.0464 35.654 45.0654 35.2975C45.0939 34.941 45.1082 34.5989 45.1082 34.2713C45.0321 34.2231 44.9037 34.1702 44.723 34.1123C44.5423 34.0449 44.333 34.0112 44.0952 34.0112L43.1822 36.6562H40.3288C40.3764 36.5791 40.4287 36.4586 40.4858 36.2948C40.5428 36.1214 40.5714 35.9142 40.5714 35.6733V29.6317C40.5714 29.3041 40.5999 29.0632 40.657 28.9091C40.714 28.7453 40.7949 28.6296 40.8995 28.5622C41.0041 28.4851 41.1278 28.4273 41.2704 28.3887L41.8839 28.2008C41.8839 28.0659 41.8649 27.9407 41.8268 27.8251C41.7888 27.7094 41.746 27.6275 41.6984 27.5793H38.303C38.246 27.5793 38.1556 27.6082 38.032 27.6661C37.9179 27.7142 37.799 27.7721 37.6753 27.8395C37.5612 27.907 37.4756 27.9744 37.4185 28.0419C37.428 28.1286 37.4518 28.2105 37.4898 28.2876C37.5279 28.3646 37.5612 28.4176 37.5897 28.4466H38.9308C38.9118 28.4658 38.8785 28.514 38.8309 28.5911C38.7929 28.6585 38.7548 28.7742 38.7168 28.938C38.6882 29.1018 38.674 29.3234 38.674 29.6028V35.2975C38.674 35.6444 38.6549 35.919 38.6169 36.1214C38.5789 36.3237 38.5075 36.4731 38.4029 36.5694C38.3078 36.6658 38.1651 36.7284 37.9749 36.7573L37.5612 36.8151C37.5326 36.8537 37.5041 36.9163 37.4756 37.003C37.447 37.0801 37.4328 37.1668 37.4328 37.2632C37.6896 37.3114 38.0272 37.3596 38.4457 37.4077C38.8737 37.4559 39.3398 37.4993 39.8438 37.5378C40.3479 37.5764 40.8567 37.6149 41.3703 37.6535C41.8839 37.6824 42.3595 37.7064 42.797 37.7257ZM48.1556 37.6101C48.4409 37.7064 48.7025 37.7546 48.9403 37.7546C49.2259 37.7546 49.516 37.7113 49.8108 37.6245C50.1149 37.5282 50.4002 37.4077 50.6668 37.2632C50.9424 37.1187 51.1849 36.9741 51.3941 36.8296C51.6037 36.6851 51.7654 36.5598 51.8795 36.4538C51.9746 36.1551 52.0552 35.7552 52.1217 35.2542C52.1981 34.7531 52.2362 34.2424 52.2362 33.7221C52.2362 33.4716 52.2267 33.2114 52.2073 32.9416C52.1883 32.6622 52.155 32.4068 52.1078 32.1756C52.0697 31.9347 52.0127 31.7516 51.9363 31.6263C51.851 31.5203 51.7128 31.4047 51.5225 31.2794C51.3323 31.1542 51.1136 31.0337 50.8663 30.9181C50.6285 30.8025 50.391 30.7109 50.1532 30.6435C49.9247 30.5664 49.7249 30.5279 49.554 30.5279C49.2782 30.5279 48.9786 30.576 48.6552 30.6724C48.3316 30.7688 48.0132 30.8892 47.6994 31.0337C47.3947 31.1686 47.1192 31.3084 46.8719 31.4529C46.6243 31.5974 46.4388 31.7131 46.3152 31.7998C46.2584 31.9732 46.2011 32.2045 46.144 32.4935C46.0872 32.773 46.0397 33.0861 46.0013 33.433C45.9728 33.7799 45.9588 34.1364 45.9588 34.5026C45.9588 34.9266 45.9921 35.3264 46.0587 35.7022C46.1348 36.078 46.2344 36.3575 46.358 36.5405C46.4154 36.6176 46.534 36.7236 46.715 36.8585C46.8954 36.9838 47.1094 37.1187 47.357 37.2632C47.6135 37.3981 47.8798 37.5137 48.1556 37.6101ZM49.4827 36.4972C49.321 36.5261 49.1974 36.5405 49.1115 36.5405C49.0354 36.5405 48.9358 36.5116 48.8119 36.4538C48.6882 36.396 48.5601 36.3237 48.4267 36.237C48.303 36.1503 48.1936 36.0684 48.0985 35.9913C48.0132 35.9142 47.9559 35.8612 47.9273 35.8323C47.9083 35.7841 47.8798 35.6444 47.842 35.4132C47.8132 35.1819 47.7897 34.9025 47.7704 34.5748C47.7514 34.2472 47.7422 33.9196 47.7422 33.592C47.7422 33.3897 47.7469 33.1873 47.7564 32.985C47.7755 32.7826 47.7945 32.5995 47.8132 32.4357C47.842 32.2719 47.8706 32.1515 47.8991 32.0744C47.9844 32.0262 48.1036 31.9828 48.2555 31.9443C48.4076 31.9058 48.5646 31.872 48.7266 31.8431C48.8883 31.8142 49.0119 31.7998 49.0972 31.7998C49.2307 31.7998 49.3778 31.8383 49.5398 31.9154C49.7107 31.9925 49.8628 32.084 49.9963 32.19C50.1292 32.2864 50.21 32.3586 50.2385 32.4068C50.2769 32.455 50.3051 32.6092 50.3244 32.8693C50.353 33.1295 50.3764 33.4378 50.3955 33.7944C50.4148 34.1412 50.424 34.4737 50.424 34.7917C50.424 35.0904 50.4148 35.3794 50.3955 35.6589C50.3764 35.9287 50.3387 36.1262 50.2816 36.2515C50.2151 36.2804 50.1057 36.3189 49.9535 36.3671C49.801 36.4153 49.6441 36.4586 49.4827 36.4972ZM54.9257 37.6245C55.2015 37.7113 55.4631 37.7546 55.7104 37.7546C55.9482 37.7546 56.2097 37.7257 56.4951 37.6679C56.7899 37.6101 57.0752 37.533 57.3511 37.4366C57.6364 37.3403 57.8884 37.2391 58.1072 37.1331C58.326 37.0271 58.4924 36.926 58.6065 36.8296C58.6731 36.714 58.7349 36.4972 58.792 36.1792C58.8491 35.8612 58.8776 35.5481 58.8776 35.2397C58.8776 35.0952 58.8681 34.9506 58.8491 34.8061C58.8396 34.6519 58.8158 34.5267 58.7777 34.4303C58.6826 34.3051 58.5019 34.1846 58.2356 34.069C57.9788 33.9533 57.6839 33.8474 57.3511 33.751C57.0277 33.6546 56.7043 33.5631 56.3809 33.4764C56.0576 33.3897 55.7865 33.3174 55.5677 33.2596C55.349 33.1921 55.2206 33.1439 55.1825 33.115C55.1635 33.0283 55.1492 32.9368 55.1397 32.8404C55.1302 32.7441 55.1255 32.6477 55.1255 32.5514C55.1255 32.4454 55.1302 32.3394 55.1397 32.2334C55.1492 32.1177 55.1635 32.0166 55.1825 31.9299C55.2872 31.9009 55.4203 31.872 55.582 31.8431C55.7437 31.8142 55.9196 31.7901 56.1099 31.7709C56.3096 31.7516 56.5046 31.742 56.6948 31.742C56.7709 31.742 56.866 31.8576 56.9801 32.0888C57.0943 32.3105 57.2274 32.5851 57.3796 32.9127C57.4272 32.9416 57.5175 32.9753 57.6507 33.0139C57.7838 33.0524 57.9408 33.0717 58.1215 33.0717C58.188 32.9657 58.2641 32.8115 58.3497 32.6092C58.4353 32.4068 58.5067 32.2045 58.5637 32.0021C58.6303 31.7998 58.6636 31.6552 58.6636 31.5685C58.6636 31.5107 58.5828 31.4288 58.4211 31.3228C58.2594 31.2072 58.0596 31.0915 57.8219 30.9759C57.5841 30.8507 57.3415 30.7447 57.0943 30.6579C56.8565 30.5712 56.6615 30.5279 56.5093 30.5279C56.2715 30.5279 56.01 30.5664 55.7247 30.6435C55.4393 30.7109 55.154 30.7977 54.8687 30.9037C54.5928 31.0096 54.3408 31.1205 54.1125 31.2361C53.8938 31.3421 53.7273 31.4384 53.6132 31.5252C53.5371 31.6986 53.4705 31.9395 53.4135 32.2478C53.3659 32.5465 53.3421 32.8404 53.3421 33.1295C53.3421 33.2548 53.3469 33.3945 53.3564 33.5486C53.3659 33.6932 53.3849 33.8136 53.4135 33.91C53.4515 33.9967 53.5942 34.0931 53.8415 34.1991C54.0983 34.2954 54.3979 34.4014 54.7403 34.517C55.0827 34.623 55.4251 34.7242 55.7675 34.8206C56.1099 34.9169 56.4 35.0085 56.6377 35.0952C56.8755 35.1723 57.0039 35.2301 57.0229 35.2686C57.0419 35.3168 57.0515 35.3794 57.0515 35.4565C57.061 35.524 57.0657 35.5962 57.0657 35.6733C57.0657 35.8082 57.0515 35.9479 57.0229 36.0925C57.0039 36.237 56.9849 36.343 56.9659 36.4104C56.7947 36.4875 56.5997 36.5405 56.3809 36.5694C56.1622 36.5983 55.9577 36.6128 55.7675 36.6128C55.6723 36.6128 55.544 36.608 55.3823 36.5983C55.2301 36.5791 55.1112 36.555 55.0256 36.5261C54.921 36.3719 54.8164 36.1744 54.7117 35.9335C54.6071 35.6926 54.5215 35.4999 54.4549 35.3553C54.4074 35.3168 54.317 35.2831 54.1839 35.2542C54.0602 35.2156 53.9176 35.1964 53.7559 35.1964C53.6512 35.3602 53.5466 35.5866 53.442 35.8757C53.3469 36.1551 53.2993 36.4345 53.2993 36.714C53.3183 36.7718 53.404 36.8585 53.5561 36.9741C53.7178 37.0801 53.9175 37.1958 54.1553 37.321C54.4026 37.4366 54.6594 37.5378 54.9257 37.6245ZM62.142 37.639C62.3703 37.7161 62.551 37.7546 62.6841 37.7546C62.8363 37.7546 62.9932 37.7305 63.1549 37.6824C63.3166 37.6342 63.4688 37.5667 63.6115 37.48C63.7636 37.3933 63.8825 37.2969 63.9681 37.1909C63.9681 37.0849 63.9491 36.9934 63.9111 36.9163C63.8825 36.8296 63.8587 36.767 63.8397 36.7284L62.4131 36.4972V31.4962L63.6828 31.5252C63.7303 31.4577 63.7827 31.3469 63.8397 31.1927C63.8968 31.0386 63.9301 30.8796 63.9396 30.7158L63.7827 30.5279H62.3132V28.2153L62.0136 27.9985C61.7663 27.9985 61.5285 28.0515 61.3003 28.1575C61.072 28.2538 60.9008 28.3502 60.7867 28.4466V29.9497C60.7867 30.1521 60.7629 30.2918 60.7153 30.3689C60.6678 30.446 60.5869 30.4941 60.4728 30.5134L59.6881 30.6435C59.6596 30.6724 59.6215 30.7447 59.574 30.8603C59.5359 30.9759 59.5169 31.1397 59.5169 31.3517L60.5869 31.4529V36.6273C60.5869 36.7236 60.6678 36.8344 60.8295 36.9597C61.0007 37.0849 61.2051 37.2102 61.4429 37.3355C61.6807 37.4511 61.9137 37.5523 62.142 37.639ZM70.3623 37.6245C70.6856 37.7113 70.9757 37.7546 71.2325 37.7546C71.5844 37.7546 71.9554 37.7064 72.3453 37.6101C72.7353 37.5137 73.111 37.3933 73.4724 37.2488C73.8338 37.1042 74.1429 36.9549 74.3997 36.8007C74.666 36.6465 74.8468 36.5116 74.9419 36.396C75.056 36.1262 75.1464 35.8082 75.2129 35.4421C75.289 35.0663 75.3271 34.6086 75.3271 34.069C75.3271 33.8859 75.3223 33.7173 75.3128 33.5631C75.3033 33.3993 75.27 33.2307 75.2129 33.0572C75.1559 32.9031 74.9752 32.7441 74.6708 32.5803C74.376 32.4068 74.0145 32.243 73.5865 32.0888C73.1585 31.9347 72.7163 31.7853 72.2597 31.6408C71.8032 31.4962 71.3752 31.3613 70.9757 31.2361C70.5763 31.1108 70.2671 31.0048 70.0484 30.9181C70.0294 30.8217 70.0151 30.7061 70.0056 30.5712C69.9961 30.4363 69.9913 30.3062 69.9913 30.181C69.9913 29.9401 70.0008 29.6944 70.0199 29.4438C70.0484 29.1837 70.0912 28.9717 70.1483 28.8079C70.3004 28.7597 70.4621 28.7212 70.6333 28.6923C70.814 28.6537 70.9948 28.6248 71.1755 28.6055C71.3657 28.5863 71.5464 28.5766 71.7176 28.5766C71.8888 28.5766 72.0647 28.5911 72.2455 28.62C72.4357 28.6489 72.6164 28.6826 72.7876 28.7212C72.9588 28.7597 73.1015 28.7983 73.2156 28.8368L73.5437 30.6579C73.6293 30.6965 73.7672 30.7398 73.9575 30.788C74.1477 30.8266 74.3522 30.8458 74.5709 30.8458C74.609 30.7302 74.6518 30.5664 74.6993 30.3544C74.7564 30.1328 74.804 29.8967 74.842 29.6462C74.88 29.386 74.9133 29.1355 74.9419 28.8946C74.9704 28.6537 74.9894 28.4417 74.9989 28.2587C74.7897 28.0948 74.5091 27.9455 74.1572 27.8106C73.8148 27.6757 73.4439 27.5649 73.0444 27.4782C72.6544 27.3914 72.274 27.3481 71.9031 27.3481C71.6653 27.3481 71.3847 27.3963 71.0613 27.4926C70.7475 27.5793 70.4193 27.695 70.0769 27.8395C69.744 27.9744 69.4349 28.1238 69.1496 28.2876C68.8643 28.4514 68.6312 28.6055 68.4505 28.7501C68.3459 28.9428 68.2603 29.2415 68.1937 29.6462C68.1272 30.0413 68.0939 30.4363 68.0939 30.8314C68.0939 31.0241 68.1034 31.2216 68.1224 31.424C68.1509 31.6167 68.1937 31.7853 68.2508 31.9299C68.3174 32.0648 68.4886 32.2093 68.7644 32.3635C69.0402 32.508 69.3779 32.6622 69.7773 32.826C70.1768 32.9801 70.6 33.1343 71.0471 33.2885C71.4941 33.433 71.9221 33.5727 72.3311 33.7076C72.74 33.8329 73.0872 33.9533 73.3725 34.069C73.4011 34.1846 73.4201 34.3195 73.4296 34.4737C73.4391 34.6278 73.4439 34.7772 73.4439 34.9217C73.4439 35.1626 73.4248 35.3987 73.3868 35.63C73.3488 35.8516 73.2964 36.0395 73.2299 36.1936C73.1157 36.2418 72.9683 36.29 72.7876 36.3382C72.6069 36.3767 72.4214 36.4104 72.2312 36.4394C72.0505 36.4586 71.8793 36.4683 71.7176 36.4683C71.5274 36.4683 71.3086 36.449 71.0613 36.4104C70.8236 36.3623 70.5905 36.3045 70.3623 36.237C70.134 36.1599 69.939 36.0828 69.7773 36.0057L69.3208 34.1123C69.2352 34.0834 69.1068 34.0497 68.9356 34.0112C68.7644 33.963 68.5742 33.9389 68.3649 33.9389C68.3079 34.1027 68.2413 34.3291 68.1652 34.6182C68.0986 34.9073 68.0415 35.2156 67.994 35.5432C67.9464 35.8612 67.9179 36.1503 67.9084 36.4104C68.0416 36.555 68.2365 36.7092 68.4933 36.873C68.7596 37.0271 69.0545 37.1717 69.3779 37.3066C69.7108 37.4318 70.0389 37.5378 70.3623 37.6245ZM78.8491 37.6101C79.1345 37.7064 79.4055 37.7546 79.6623 37.7546C80.0428 37.7546 80.3995 37.692 80.7323 37.5667C81.0747 37.4415 81.3696 37.2921 81.6169 37.1187C81.8737 36.9452 82.0687 36.7911 82.2018 36.6562C82.2018 36.5405 82.178 36.4442 82.1305 36.3671C82.0829 36.2804 82.0401 36.2177 82.0021 36.1792C81.8784 36.1985 81.7167 36.2274 81.517 36.2659C81.3268 36.2948 81.1223 36.3237 80.9035 36.3526C80.6943 36.3815 80.4898 36.4104 80.2901 36.4394C80.0999 36.4586 79.9429 36.4683 79.8193 36.4683C79.7432 36.4683 79.6386 36.4394 79.5054 36.3815C79.3818 36.3237 79.2534 36.2563 79.1202 36.1792C78.9871 36.0925 78.8682 36.0154 78.7635 35.9479C78.6684 35.8708 78.6066 35.8179 78.5781 35.7889C78.5495 35.7408 78.5163 35.6059 78.4782 35.3842C78.4497 35.153 78.4259 34.8832 78.4069 34.5748C78.7683 34.5652 79.1107 34.5508 79.4341 34.5315C79.767 34.5026 80.0666 34.4689 80.3329 34.4303C80.6087 34.3821 80.8322 34.334 81.0034 34.2858C81.1271 34.228 81.265 34.1412 81.4171 34.0256C81.5693 33.91 81.7263 33.7799 81.8879 33.6354C82.0496 33.4812 82.1828 33.3222 82.2874 33.1584C82.2874 32.9946 82.2731 32.7971 82.2446 32.5658C82.2256 32.3346 82.1923 32.1129 82.1447 31.9009C82.1067 31.6793 82.0639 31.5252 82.0163 31.4384C81.9307 31.3228 81.7738 31.1927 81.5455 31.0482C81.3268 30.9037 81.089 30.7832 80.8322 30.6868C80.5849 30.5809 80.3757 30.5279 80.2045 30.5279C79.9191 30.5279 79.6148 30.576 79.2914 30.6724C78.9775 30.7688 78.6684 30.8892 78.3641 31.0337C78.0597 31.1686 77.7839 31.3084 77.5366 31.4529C77.2988 31.5974 77.1134 31.7131 76.9802 31.7998C76.9231 31.9732 76.8661 32.2045 76.809 32.4935C76.7519 32.7826 76.7044 33.1054 76.6663 33.4619C76.6378 33.8088 76.6235 34.1653 76.6235 34.5315C76.6235 34.9555 76.6568 35.3505 76.7234 35.7167C76.7995 36.0828 76.8994 36.3575 77.023 36.5405C77.0706 36.608 77.1847 36.7092 77.3654 36.8441C77.5461 36.979 77.7649 37.1187 78.0217 37.2632C78.288 37.3981 78.5638 37.5137 78.8491 37.6101ZM79.7765 33.6065C79.6053 33.6257 79.4436 33.6354 79.2914 33.6354C79.1297 33.6354 78.9633 33.6306 78.7921 33.6209C78.6304 33.6016 78.4972 33.5727 78.3926 33.5342C78.3926 33.3704 78.3974 33.2018 78.4069 33.0283C78.4164 32.8452 78.4307 32.6718 78.4497 32.508C78.4782 32.3442 78.5115 32.2045 78.5495 32.0888C78.6351 32.0503 78.7588 32.0069 78.9205 31.9588C79.0822 31.9106 79.2439 31.872 79.4055 31.8431C79.5672 31.8142 79.6861 31.7998 79.7622 31.7998C79.8383 31.7998 79.9239 31.8239 80.019 31.872C80.1236 31.9202 80.2187 31.978 80.3043 32.0455C80.3995 32.1129 80.4613 32.1756 80.4898 32.2334C80.5183 32.3008 80.5421 32.4116 80.5611 32.5658C80.5802 32.7103 80.5944 32.8645 80.6039 33.0283C80.623 33.1825 80.6325 33.3222 80.6325 33.4475C80.5469 33.486 80.428 33.5197 80.2758 33.5486C80.1236 33.5679 79.9572 33.5872 79.7765 33.6065ZM84.4851 37.6245C84.7419 37.7402 84.9654 37.798 85.1556 37.798C85.3458 37.798 85.5741 37.7498 85.8404 37.6535C86.1067 37.5571 86.373 37.4415 86.6393 37.3066C86.9152 37.162 87.1482 37.0223 87.3384 36.8874C87.4145 37.0223 87.5096 37.1572 87.6237 37.2921C87.7474 37.427 87.8948 37.5378 88.066 37.6245C88.2467 37.7113 88.456 37.7546 88.6937 37.7546C88.8269 37.7546 88.9791 37.7305 89.1503 37.6824C89.331 37.6342 89.4974 37.5715 89.6496 37.4945C89.8113 37.4174 89.9302 37.3307 90.0063 37.2343C90.0063 37.1187 89.9873 37.0175 89.9492 36.9308C89.9207 36.8441 89.8969 36.7814 89.8779 36.7429L88.9505 36.6273V32.0888C88.9505 31.9539 88.8697 31.7998 88.708 31.6263C88.5558 31.4433 88.3561 31.2698 88.1088 31.106C87.871 30.9422 87.6237 30.8073 87.3669 30.7013C87.1101 30.5857 86.8771 30.5279 86.6679 30.5279C86.4491 30.5279 86.1971 30.5519 85.9117 30.6001C85.6264 30.6483 85.3316 30.7206 85.0272 30.8169C84.7228 30.9133 84.4328 31.0289 84.1569 31.1638C83.8906 31.2987 83.6529 31.4577 83.4436 31.6408C83.4912 31.9588 83.5815 32.2575 83.7147 32.5369C83.8478 32.8067 83.9667 33.0042 84.0713 33.1295C84.2521 33.1199 84.4042 33.0958 84.5279 33.0572C84.661 33.0091 84.7514 32.9705 84.7989 32.9416L85.2555 31.7564C85.3125 31.7468 85.3839 31.742 85.4695 31.742C85.5551 31.7323 85.6312 31.7275 85.6977 31.7275C85.926 31.7275 86.1685 31.7612 86.4253 31.8287C86.6916 31.8865 86.9247 31.9732 87.1244 32.0888V33.6354C86.9722 33.6546 86.8296 33.6739 86.6964 33.6932C86.5728 33.7125 86.4539 33.7269 86.3397 33.7365L85.9973 33.7655C85.8832 33.7751 85.7596 33.7847 85.6264 33.7944C85.4077 33.804 85.1984 33.8136 84.9987 33.8233C84.7989 33.8329 84.6563 33.8522 84.5707 33.8811C84.4851 33.9004 84.3709 33.9533 84.2283 34.0401C84.0951 34.1172 83.9572 34.2087 83.8145 34.3147C83.6719 34.4207 83.5435 34.5267 83.4293 34.6327C83.3247 34.7387 83.2534 34.8254 83.2153 34.8928C83.1963 34.9892 83.1821 35.0904 83.1725 35.1964C83.163 35.3023 83.1583 35.418 83.1583 35.5432C83.1583 35.8034 83.1773 36.0491 83.2153 36.2804C83.2534 36.502 83.3009 36.6754 83.358 36.8007C83.4246 36.9067 83.5625 37.0416 83.7717 37.2054C83.9905 37.3596 84.2283 37.4993 84.4851 37.6245ZM86.1828 36.4827C86.0211 36.5213 85.8927 36.5405 85.7976 36.5405C85.6549 36.5405 85.5028 36.4924 85.3411 36.396C85.1889 36.29 85.0748 36.1936 84.9987 36.1069C84.9511 35.9431 84.9178 35.7504 84.8988 35.5288C84.8893 35.3072 84.8845 35.1241 84.8845 34.9795C85.0177 34.8736 85.1936 34.8013 85.4124 34.7627C85.6312 34.7146 85.8642 34.676 86.1115 34.6471C86.2827 34.6278 86.4539 34.6038 86.6251 34.5748C86.8058 34.5363 86.9722 34.4978 87.1244 34.4592V36.1358C87.0103 36.184 86.8629 36.2418 86.6821 36.3093C86.5109 36.3767 86.3445 36.4345 86.1828 36.4827ZM34.9288 50.1606C34.5388 50.1798 34.1108 50.1895 33.6448 50.1895L34.729 46.0269C34.9193 46.0558 35.1047 46.1088 35.2854 46.1859C35.4757 46.2629 35.6611 46.3737 35.8418 46.5183L36.5837 50.0305C36.4315 50.0594 36.2128 50.0835 35.9274 50.1028C35.6516 50.122 35.3187 50.1413 34.9288 50.1606ZM43.4137 55.0892C43.6705 55.1759 43.9178 55.2193 44.1556 55.2193C44.3553 55.2193 44.5741 55.1808 44.8118 55.1037C45.0496 55.017 45.2826 54.9062 45.5109 54.7713C45.7487 54.6364 45.9532 54.4966 46.1244 54.3521C46.1814 54.4677 46.267 54.5978 46.3812 54.7423C46.5048 54.8772 46.657 54.9929 46.8377 55.0892C47.0184 55.1759 47.2324 55.2193 47.4797 55.2193C47.6034 55.2193 47.7508 55.1952 47.922 55.147C48.1027 55.0989 48.2739 55.0362 48.4356 54.9591C48.5973 54.8724 48.7114 54.7857 48.778 54.699C48.778 54.593 48.7637 54.4966 48.7352 54.4099C48.7067 54.3136 48.6781 54.2461 48.6496 54.2076L47.7222 54.0919V44.7983C47.7222 44.4707 47.6176 44.2009 47.4084 43.9889C47.2086 43.7673 46.9471 43.6565 46.6237 43.6565C46.443 43.6565 46.229 43.6806 45.9817 43.7288C45.7439 43.7769 45.5157 43.8347 45.2969 43.9022C45.0782 43.96 44.9165 44.013 44.8118 44.0612C44.7833 44.0997 44.75 44.1672 44.712 44.2635C44.6739 44.3503 44.6502 44.4514 44.6406 44.5671L45.6678 44.8995C45.7534 44.9188 45.8105 44.9669 45.8391 45.044C45.8771 45.1211 45.8961 45.1982 45.8961 45.2753V48.2672C45.7535 48.1997 45.5918 48.1371 45.411 48.0793C45.2398 48.0215 45.0877 47.9925 44.9545 47.9925C44.6692 47.9925 44.3696 48.0407 44.0557 48.1371C43.7419 48.2238 43.4327 48.3394 43.1284 48.484C42.8335 48.6189 42.5672 48.7586 42.3295 48.9031C42.0917 49.0477 41.911 49.1729 41.7873 49.2789C41.7302 49.4427 41.6732 49.6692 41.6161 49.9582C41.5591 50.2473 41.5115 50.5653 41.4734 50.9122C41.4449 51.259 41.4306 51.6204 41.4306 51.9962C41.4306 52.4201 41.4639 52.82 41.5305 53.1958C41.5971 53.562 41.697 53.8318 41.8301 54.0052C41.8967 54.0919 42.0061 54.2027 42.1582 54.3376C42.3199 54.4725 42.5054 54.6074 42.7146 54.7423C42.9334 54.8772 43.1664 54.9929 43.4137 55.0892ZM44.9688 53.9329C44.8261 53.9715 44.712 53.9908 44.6264 53.9908C44.5408 53.9908 44.4362 53.9619 44.3125 53.904C44.1984 53.8366 44.0842 53.7595 43.9701 53.6728C43.856 53.5861 43.7514 53.5042 43.6562 53.4271C43.5611 53.35 43.4993 53.2922 43.4708 53.2536C43.4422 53.2055 43.4137 53.0754 43.3852 52.8634C43.3566 52.6514 43.3281 52.3961 43.2996 52.0973C43.2806 51.789 43.2711 51.471 43.2711 51.1434C43.2711 50.9314 43.2758 50.7243 43.2853 50.5219C43.3043 50.3099 43.3281 50.1172 43.3566 49.9438C43.3852 49.7607 43.4137 49.6162 43.4422 49.5102C43.5278 49.4716 43.642 49.4331 43.7846 49.3945C43.9273 49.356 44.07 49.3271 44.2127 49.3078C44.3553 49.2789 44.4695 49.2645 44.5551 49.2645C44.6692 49.2645 44.8023 49.2837 44.9545 49.3223C45.1067 49.3512 45.2684 49.3945 45.4396 49.4524C45.6108 49.5102 45.763 49.568 45.8961 49.6258V53.6005C45.7535 53.668 45.5965 53.7306 45.4253 53.7884C45.2636 53.8462 45.1114 53.8944 44.9688 53.9329ZM52.4083 55.1037C52.6746 55.1808 52.9361 55.2193 53.1929 55.2193C53.3641 55.2193 53.5543 55.1181 53.7636 54.9158C53.9823 54.7038 54.2011 54.4244 54.4199 54.0775C54.6481 53.7306 54.8621 53.3452 55.0619 52.9212C55.2616 52.4972 55.4423 52.0588 55.604 51.6059C55.7657 51.153 55.8941 50.7194 55.9892 50.3051C56.0843 49.8908 56.1319 49.5294 56.1319 49.2211C56.1319 49.1536 56.0795 49.0525 55.9749 48.9176C55.8703 48.7827 55.7371 48.6478 55.5755 48.5129C55.4233 48.3683 55.2663 48.2479 55.1047 48.1515C54.943 48.0455 54.8051 47.9925 54.6909 47.9925C54.5483 47.9925 54.3675 48.0022 54.1488 48.0215C53.9395 48.0407 53.7351 48.0696 53.5353 48.1082C53.3451 48.1371 53.1882 48.1756 53.0645 48.2238C53.0265 48.272 52.9884 48.3442 52.9504 48.4406C52.9219 48.537 52.9028 48.643 52.8933 48.7586C52.9789 48.7875 53.0883 48.8308 53.2215 48.8887C53.3546 48.9368 53.4973 48.9995 53.6495 49.0766C53.8111 49.144 53.9633 49.2163 54.106 49.2934C54.2487 49.3608 54.3628 49.4331 54.4484 49.5102C54.4199 49.8281 54.3675 50.1991 54.2915 50.6231C54.2154 51.0374 54.1155 51.4566 53.9919 51.8805C53.8682 52.3045 53.7303 52.7044 53.5781 53.0802C53.4259 53.4463 53.2643 53.7451 53.0931 53.9763C52.9504 53.9474 52.8125 53.8944 52.6793 53.8173C52.5557 53.7306 52.4463 53.6487 52.3512 53.5716C52.2561 53.4849 52.1847 53.4126 52.1372 53.3548L51.6093 49.3656C51.5427 48.9031 51.4001 48.561 51.1813 48.3394C50.9721 48.1082 50.701 47.9925 50.3681 47.9925C50.2445 47.9925 50.0828 48.0166 49.8831 48.0648C49.6928 48.1034 49.5074 48.1515 49.3267 48.2093C49.1459 48.2672 49.008 48.325 48.9129 48.3828C48.8844 48.431 48.8511 48.4984 48.8131 48.5851C48.775 48.6719 48.756 48.7682 48.756 48.8742L49.3552 49.1344C49.5359 49.2211 49.6595 49.3656 49.7261 49.568C49.7927 49.7703 49.845 49.963 49.8831 50.1461L50.5964 54.0197C50.6915 54.1257 50.8294 54.2461 51.0101 54.381C51.2003 54.5159 51.4143 54.6508 51.6521 54.7857C51.8994 54.911 52.1515 55.017 52.4083 55.1037ZM59.2744 55.0748C59.5597 55.1711 59.8308 55.2193 60.0876 55.2193C60.468 55.2193 60.8247 55.1567 61.1576 55.0314C61.5 54.9061 61.7948 54.7568 62.0421 54.5834C62.2989 54.4099 62.4939 54.2557 62.6271 54.1208C62.6271 54.0052 62.6033 53.9089 62.5557 53.8318C62.5082 53.745 62.4654 53.6824 62.4273 53.6439C62.3037 53.6631 62.142 53.6921 61.9423 53.7306C61.752 53.7595 61.5475 53.7884 61.3288 53.8173C61.1195 53.8462 60.9151 53.8751 60.7153 53.904C60.5251 53.9233 60.3682 53.9329 60.2445 53.9329C60.1684 53.9329 60.0638 53.904 59.9307 53.8462C59.807 53.7884 59.6786 53.721 59.5455 53.6439C59.4123 53.5572 59.2934 53.4801 59.1888 53.4126C59.0937 53.3355 59.0319 53.2825 59.0033 53.2536C58.9748 53.2055 58.9415 53.0706 58.9035 52.8489C58.8749 52.6177 58.8511 52.3479 58.8321 52.0395C59.1935 52.0299 59.5359 52.0154 59.8593 51.9962C60.1922 51.9673 60.4918 51.9335 60.7581 51.895C61.0339 51.8468 61.2575 51.7986 61.4287 51.7505C61.5523 51.6926 61.6902 51.6059 61.8424 51.4903C61.9946 51.3747 62.1515 51.2446 62.3132 51.1001C62.4749 50.9459 62.608 50.7869 62.7127 50.6231C62.7127 50.4593 62.6984 50.2617 62.6699 50.0305C62.6508 49.7992 62.6175 49.5776 62.57 49.3656C62.5319 49.144 62.4891 48.9898 62.4416 48.9031C62.356 48.7875 62.1991 48.6574 61.9708 48.5129C61.752 48.3683 61.5143 48.2479 61.2575 48.1515C61.0102 48.0455 60.8009 47.9925 60.6297 47.9925C60.3444 47.9925 60.04 48.0407 59.7167 48.1371C59.4028 48.2334 59.0937 48.3539 58.7893 48.4984C58.485 48.6333 58.2091 48.773 57.9619 48.9176C57.7241 49.0621 57.5386 49.1777 57.4055 49.2645C57.3484 49.4379 57.2913 49.6692 57.2343 49.9582C57.1772 50.2473 57.1296 50.5701 57.0916 50.9266C57.0631 51.2735 57.0488 51.63 57.0488 51.9962C57.0488 52.4201 57.0821 52.8152 57.1487 53.1814C57.2247 53.5475 57.3246 53.8221 57.4483 54.0052C57.4958 54.0727 57.6099 54.1738 57.7907 54.3087C57.9714 54.4436 58.1901 54.5834 58.4469 54.7279C58.7132 54.8628 58.9891 54.9784 59.2744 55.0748ZM60.2017 51.0711C60.0305 51.0904 59.8688 51.1001 59.7167 51.1001C59.555 51.1001 59.3885 51.0952 59.2173 51.0856C59.0556 51.0663 58.9225 51.0374 58.8179 50.9989C58.8179 50.8351 58.8226 50.6664 58.8321 50.493C58.8416 50.3099 58.8559 50.1365 58.8749 49.9727C58.9035 49.8089 58.9367 49.6692 58.9748 49.5535C59.0604 49.515 59.184 49.4716 59.3457 49.4234C59.5074 49.3753 59.6691 49.3367 59.8308 49.3078C59.9925 49.2789 60.1114 49.2645 60.1875 49.2645C60.2635 49.2645 60.3491 49.2885 60.4443 49.3367C60.5489 49.3849 60.644 49.4427 60.7296 49.5102C60.8247 49.5776 60.8865 49.6402 60.9151 49.6981C60.9436 49.7655 60.9674 49.8763 60.9864 50.0305C61.0054 50.175 61.0197 50.3292 61.0292 50.493C61.0482 50.6472 61.0577 50.7869 61.0577 50.9122C60.9721 50.9507 60.8532 50.9844 60.7011 51.0133C60.5489 51.0326 60.3824 51.0519 60.2017 51.0711ZM65.4667 55.176C65.7045 55.2049 65.8709 55.2193 65.966 55.2193C66.0704 55.2193 66.1988 55.1952 66.3509 55.147C66.5031 55.0892 66.6461 55.0266 66.7792 54.9591C66.9121 54.8821 67.0025 54.805 67.0503 54.7279C67.0503 54.6412 67.0358 54.5593 67.0072 54.4822C66.9885 54.4051 66.9695 54.3521 66.9502 54.3232L65.9375 54.1931C65.9946 54.116 66.0466 53.9956 66.0941 53.8318C66.142 53.668 66.1655 53.4849 66.1655 53.2825V49.7559C66.2419 49.727 66.3417 49.6884 66.4654 49.6402C66.5982 49.5921 66.7364 49.5439 66.8788 49.4957C67.0218 49.4475 67.1549 49.409 67.2786 49.3801C67.4114 49.3415 67.5161 49.3223 67.5924 49.3223C67.6397 49.3223 67.7113 49.3464 67.8064 49.3945C67.9108 49.4427 68.0157 49.5053 68.1203 49.5824C68.2341 49.6595 68.3245 49.7462 68.3911 49.8426C68.4675 49.9293 68.5052 50.0112 68.5052 50.0883V53.0946C68.5052 53.403 68.4912 53.6391 68.4627 53.8029C68.4342 53.957 68.3863 54.0678 68.3198 54.1353C68.2627 54.2027 68.1821 54.2413 68.0772 54.2509L67.7633 54.3087C67.7351 54.3569 67.7018 54.4244 67.6635 54.5111C67.6349 54.5882 67.621 54.6653 67.621 54.7423C67.7351 54.7809 67.9155 54.8291 68.1628 54.8869C68.4101 54.9351 68.6767 54.9881 68.962 55.0459C69.2566 55.094 69.5232 55.1374 69.7607 55.176C69.9988 55.2049 70.1649 55.2193 70.2603 55.2193C70.3646 55.2193 70.4883 55.1952 70.6312 55.147C70.7834 55.0892 70.9213 55.0266 71.045 54.9591C71.1781 54.8821 71.2685 54.805 71.3158 54.7279C71.3158 54.6412 71.3018 54.5593 71.2729 54.4822C71.2542 54.4051 71.2352 54.3521 71.2159 54.3232L70.1462 54.1931C70.1839 54.1353 70.2223 54.0341 70.2603 53.8896C70.3076 53.745 70.3313 53.5716 70.3313 53.3693V49.4234C70.3313 49.25 70.2505 49.0814 70.0891 48.9176C69.9369 48.7441 69.7322 48.59 69.4754 48.4551C69.2281 48.3105 68.9716 48.1997 68.7049 48.1226C68.4389 48.0359 68.1961 47.9925 67.9773 47.9925C67.8157 47.9925 67.6257 48.0504 67.407 48.166C67.1974 48.2816 66.9787 48.4213 66.7507 48.5851C66.532 48.7393 66.3322 48.8887 66.1515 49.0332C66.1322 48.7249 66.0184 48.4743 65.8091 48.2816C65.6094 48.0889 65.357 47.9925 65.053 47.9925C64.7864 47.9925 64.4966 48.0407 64.1827 48.1371C63.8781 48.2334 63.6453 48.3202 63.4836 48.3972C63.4453 48.4454 63.4073 48.5177 63.3695 48.614C63.3407 48.7008 63.3169 48.8019 63.2982 48.9176L64.1114 49.2355C64.1967 49.2645 64.2538 49.3126 64.2823 49.3801C64.3203 49.4475 64.3396 49.5246 64.3396 49.6113V53.0946C64.3396 53.5475 64.3064 53.8462 64.2398 53.9908C64.1732 54.1257 64.0591 54.2076 63.8974 54.2365L63.5404 54.3087C63.5119 54.3569 63.4786 54.4244 63.4406 54.5111C63.412 54.5882 63.398 54.6653 63.398 54.7423C63.5119 54.7809 63.6878 54.8291 63.9259 54.8869C64.1732 54.9351 64.4348 54.9881 64.7106 55.0459C64.9864 55.094 65.2384 55.1374 65.4667 55.176ZM74.1518 55.1037C74.3801 55.1808 74.5608 55.2193 74.694 55.2193C74.8462 55.2193 75.0031 55.1952 75.1648 55.147C75.3265 55.0989 75.4786 55.0314 75.6213 54.9447C75.7735 54.858 75.8924 54.7616 75.978 54.6556C75.978 54.5496 75.959 54.4581 75.9209 54.381C75.8924 54.2943 75.8686 54.2317 75.8496 54.1931L74.4229 53.9619V48.9609L75.6926 48.9898C75.7402 48.9224 75.7925 48.8116 75.8496 48.6574C75.9066 48.5032 75.9399 48.3442 75.9494 48.1804L75.7925 47.9925H74.323V45.68L74.0234 45.4632C73.7762 45.4632 73.5384 45.5162 73.3101 45.6222C73.0818 45.7185 72.9106 45.8149 72.7965 45.9112V47.4144C72.7965 47.6168 72.7727 47.7565 72.7252 47.8336C72.6776 47.9106 72.5968 47.9588 72.4826 47.9781L71.698 48.1082C71.6694 48.1371 71.6314 48.2093 71.5838 48.325C71.5458 48.4406 71.5268 48.6044 71.5268 48.8164L72.5968 48.9176V54.0919C72.5968 54.1883 72.6776 54.2991 72.8393 54.4244C73.0105 54.5496 73.215 54.6749 73.4528 54.8002C73.6906 54.9158 73.9236 55.017 74.1518 55.1037ZM78.8453 55.1181C79.1021 55.2241 79.3446 55.2771 79.5729 55.2771C79.7631 55.2771 79.9961 55.2289 80.2719 55.1326C80.5478 55.0266 80.8188 54.9062 81.0851 54.7713C81.3515 54.6267 81.575 54.4918 81.7557 54.3666C81.8698 54.5978 82.041 54.8002 82.2693 54.9736C82.5071 55.1374 82.7829 55.2193 83.0967 55.2193C83.2489 55.2193 83.4154 55.1952 83.5961 55.147C83.7863 55.0892 83.9575 55.0218 84.1097 54.9447C84.2619 54.858 84.3617 54.7713 84.4093 54.6845C84.4093 54.5785 84.395 54.4822 84.3665 54.3955C84.3379 54.3087 84.3094 54.2461 84.2809 54.2076L83.3678 54.0919V49.1344C83.3678 48.8068 83.2632 48.537 83.0539 48.325C82.8447 48.1034 82.5831 47.9925 82.2693 47.9925C82.0886 47.9925 81.8793 48.0166 81.6415 48.0648C81.4133 48.113 81.1993 48.1708 80.9995 48.2383C80.7998 48.2961 80.6476 48.3491 80.543 48.3972C80.505 48.4262 80.4669 48.4888 80.4289 48.5851C80.3908 48.6719 80.3671 48.7779 80.3575 48.9031L81.2991 49.2355C81.3847 49.2645 81.4466 49.3126 81.4846 49.3801C81.5227 49.4475 81.5417 49.5246 81.5417 49.6113V53.5716C81.3895 53.6487 81.2183 53.7258 81.0281 53.8029C80.8379 53.8703 80.6619 53.9281 80.5002 53.9763C80.3385 54.0148 80.2149 54.0341 80.1293 54.0341C80.0437 54.0341 79.9438 54.0004 79.8297 53.9329C79.7155 53.8559 79.6014 53.7691 79.4873 53.6728C79.3827 53.5764 79.2875 53.4945 79.2019 53.4271V49.1344C79.2019 48.8068 79.0973 48.537 78.8881 48.325C78.6788 48.1034 78.4173 47.9925 78.1034 47.9925C77.8371 47.9925 77.547 48.0407 77.2331 48.1371C76.9288 48.2334 76.6958 48.3202 76.5341 48.3972C76.496 48.4454 76.458 48.5177 76.4199 48.614C76.3914 48.7008 76.3676 48.8019 76.3486 48.9176L77.1475 49.2355C77.2331 49.2645 77.2902 49.3126 77.3187 49.3801C77.3568 49.4475 77.3758 49.5246 77.3758 49.6113V53.8751C77.3758 53.9619 77.4424 54.0823 77.5755 54.2365C77.7182 54.381 77.8989 54.5352 78.1177 54.699C78.3459 54.8628 78.5885 55.0025 78.8453 55.1181ZM87.2469 55.176C87.5037 55.2049 87.6796 55.2193 87.7747 55.2193C87.8698 55.2193 87.9935 55.1952 88.1457 55.147C88.2978 55.0989 88.4405 55.0362 88.5737 54.9591C88.7163 54.8821 88.8162 54.805 88.8733 54.7279C88.8733 54.6412 88.859 54.5593 88.8305 54.4822C88.8114 54.4051 88.7924 54.3521 88.7734 54.3232L87.575 54.1931C87.613 54.1353 87.6511 54.0341 87.6891 53.8896C87.7367 53.745 87.7605 53.5716 87.7605 53.3693V50.3196L87.9174 50.1606C88.003 50.0835 88.0933 50.0016 88.1885 49.9149C88.2931 49.8281 88.3882 49.7559 88.4738 49.6981C88.5594 49.6306 88.6212 49.5969 88.6593 49.5969C88.7163 49.5969 88.7686 49.6547 88.8162 49.7703C88.8733 49.8763 88.9256 50.0016 88.9731 50.1461C89.0207 50.281 89.0682 50.4063 89.1158 50.5219C89.2014 50.5508 89.3155 50.5845 89.4582 50.6231C89.6104 50.652 89.7483 50.6664 89.8719 50.6664C89.948 50.5797 90.0289 50.4448 90.1145 50.2617C90.2001 50.069 90.2762 49.8763 90.3427 49.6836C90.4093 49.4813 90.4426 49.3271 90.4426 49.2211C90.4426 49.1536 90.3998 49.0525 90.3142 48.9176C90.2381 48.7827 90.1335 48.643 90.0003 48.4984C89.8767 48.3539 89.7435 48.2334 89.6009 48.1371C89.4582 48.0407 89.3203 47.9925 89.1871 47.9925C89.054 47.9925 88.9161 48.0504 88.7734 48.166C88.6402 48.272 88.5071 48.4069 88.3739 48.5707C88.2408 48.7249 88.1171 48.879 88.003 49.0332C87.8984 49.1874 87.8128 49.3078 87.7462 49.3945V49.2789C87.7462 48.8742 87.6463 48.561 87.4466 48.3394C87.2469 48.1082 86.9853 47.9925 86.6619 47.9925C86.3956 47.9925 86.1055 48.0407 85.7917 48.1371C85.4873 48.2334 85.2543 48.3202 85.0926 48.3972C85.0545 48.4454 85.0165 48.5177 84.9785 48.614C84.9499 48.7008 84.9262 48.8019 84.9071 48.9176L85.7061 49.2355C85.7822 49.2645 85.8392 49.3126 85.8773 49.3801C85.9153 49.4379 85.9343 49.515 85.9343 49.6113V53.0946C85.9343 53.403 85.9153 53.6391 85.8773 53.8029C85.8487 53.957 85.8012 54.063 85.7346 54.1208C85.6775 54.1787 85.5967 54.2172 85.4921 54.2365L85.1354 54.3087C85.0974 54.3569 85.0641 54.4244 85.0355 54.5111C85.007 54.5882 84.9927 54.6653 84.9927 54.7423C85.1069 54.7809 85.2923 54.8291 85.5491 54.8869C85.8154 54.9351 86.1008 54.9881 86.4051 55.0459C86.719 55.094 86.9996 55.1374 87.2469 55.176ZM94.1965 51.0711C94.0253 51.0904 93.8636 51.1001 93.7114 51.1001C93.5498 51.1001 93.3833 51.0952 93.2121 51.0856C93.0504 51.0663 92.9173 51.0374 92.8126 50.9989C92.8126 50.8351 92.8174 50.6664 92.8269 50.493C92.8364 50.3099 92.8507 50.1365 92.8697 49.9727C92.8982 49.8089 92.9315 49.6692 92.9696 49.5535C93.0552 49.515 93.1788 49.4716 93.3405 49.4234C93.5022 49.3753 93.6639 49.3367 93.8256 49.3078C93.9873 49.2789 94.1062 49.2645 94.1822 49.2645C94.2583 49.2645 94.3439 49.2885 94.439 49.3367C94.5437 49.3849 94.6388 49.4427 94.7244 49.5102C94.8195 49.5776 94.8813 49.6402 94.9098 49.6981C94.9384 49.7655 94.9622 49.8763 94.9812 50.0305C95.0002 50.175 95.0145 50.3292 95.024 50.493C95.043 50.6472 95.0525 50.7869 95.0525 50.9122C94.9669 50.9507 94.848 50.9844 94.6958 51.0133C94.5437 51.0326 94.3772 51.0519 94.1965 51.0711Z" fill="#0057FF"/>
<path fill-rule="evenodd" clip-rule="evenodd" d="M47.4078 80.4726C25.3992 65.6409 11.7688 44.5851 10 23.1351C17.3688 34.5515 24.8391 43.9235 32.0694 51.6192L32.0612 51.6493C31.8995 52.2371 31.7473 52.7044 31.6046 53.0513C31.4715 53.3885 31.3431 53.6439 31.2194 53.8173C31.0958 53.9811 30.9769 54.0919 30.8628 54.1498C30.7486 54.1979 30.6393 54.2268 30.5346 54.2365L30.3206 54.2654C30.2921 54.2943 30.2588 54.3521 30.2208 54.4388C30.1922 54.5255 30.178 54.6171 30.178 54.7134C30.3111 54.752 30.4918 54.7953 30.7201 54.8435C30.9484 54.8917 31.1957 54.9399 31.462 54.9881C31.7283 55.0266 31.9851 55.0651 32.2324 55.1037C32.4797 55.1326 32.6937 55.1615 32.8744 55.1904C33.0551 55.2097 33.1692 55.2193 33.2168 55.2193C33.3309 55.2193 33.4641 55.1952 33.6162 55.147C33.7779 55.0989 33.9301 55.0362 34.0728 54.9592C34.2154 54.8821 34.3201 54.805 34.3866 54.7279C34.3866 54.6315 34.3676 54.5448 34.3296 54.4677C34.301 54.3906 34.2773 54.3376 34.2582 54.3087L32.2181 54.1498C32.2752 54.1401 32.3465 54.0919 32.4321 54.0052C32.5177 53.9185 32.6033 53.8029 32.6889 53.6583C32.7745 53.5042 32.8411 53.3307 32.8886 53.138L33.0224 52.6254C42.5384 62.5909 51.6099 69.6635 59.4509 74.6912C55.9503 76.7626 51.697 78.7168 47.4078 80.4726ZM96.6376 49.7761C103.333 42.4395 110.21 33.6551 117 23.1351C114.888 48.7509 95.8598 73.8057 65.8454 88.367C65.0791 88.747 64.3108 89.1222 63.5401 89.4929L63.5 89.4745C59.4346 91.3348 55.2729 92.971 51.0333 94.3757C50.1865 93.009 49.3163 91.2372 48.4062 89.3839L48.3622 89.2941C47.7139 87.974 47.0404 86.6166 46.2816 85.3155C54.4294 82.3871 72.1724 74.7789 92.1222 54.5382C92.2212 54.6005 92.3279 54.6638 92.4417 54.7279C92.708 54.8628 92.9838 54.9784 93.2692 55.0748C93.5545 55.1711 93.8256 55.2193 94.0824 55.2193C94.4628 55.2193 94.8195 55.1567 95.1524 55.0314C95.4948 54.9062 95.7896 54.7568 96.0369 54.5834C96.2937 54.4099 96.4887 54.2557 96.6218 54.1208C96.6218 54.0052 96.5981 53.9089 96.5505 53.8318C96.503 53.7451 96.4602 53.6824 96.4221 53.6439C96.2985 53.6632 96.1368 53.6921 95.9371 53.7306C95.7468 53.7595 95.5423 53.7884 95.3236 53.8173C95.1143 53.8462 94.9099 53.8751 94.7101 53.904C94.5199 53.9233 94.363 53.9329 94.2393 53.9329C94.1632 53.9329 94.0586 53.904 93.9255 53.8462C93.8018 53.7884 93.6734 53.721 93.5403 53.6439C93.4169 53.5635 93.3057 53.4915 93.2068 53.4277C93.6898 52.9286 94.1736 52.4222 94.6587 51.9083C94.6905 51.9039 94.722 51.8995 94.7529 51.895C95.0287 51.8468 95.2523 51.7986 95.4235 51.7505C95.5471 51.6927 95.685 51.6059 95.8372 51.4903C95.9894 51.3747 96.1463 51.2446 96.308 51.1001C96.4697 50.9459 96.6028 50.7869 96.7075 50.6231C96.7075 50.4593 96.6932 50.2618 96.6647 50.0305C96.6575 49.9444 96.6486 49.8596 96.6376 49.7761ZM32.9374 80.7247C33.1264 80.7156 33.3156 80.7135 33.5047 80.7181C36.3096 80.7885 38.6189 82.3856 40.2641 84.3444C42.0189 86.4341 43.2859 88.9948 44.4781 91.423L44.5586 91.5871C45.7214 93.9551 46.819 96.1909 47.886 97.595C48.9771 99.0313 49.6185 99.4285 50.5964 99.2975L51.1602 103.618C48.3497 103.995 46.012 102.271 44.4802 100.255C43.1106 98.4519 42.0513 96.2797 41.003 94.13C40.8784 93.8747 40.7542 93.6199 40.6293 93.3661C39.4544 90.9731 38.2549 88.6765 36.9896 87.1701C35.7247 85.663 34.6609 85.0047 33.1419 85.0779L32.9374 80.7247ZM86.7362 84.3444C88.3811 82.3853 90.6902 80.7885 93.4954 80.7181C93.6844 80.7135 93.8737 80.7156 94.0625 80.7247L93.8583 85.0779C92.3389 85.0047 91.2754 85.663 90.0101 87.1697C88.7449 88.6765 87.5456 90.9731 86.3707 93.3661C86.2458 93.6208 86.121 93.8765 85.9962 94.1324C84.9482 96.2812 83.8891 98.4525 82.5198 100.255C80.988 102.271 78.6503 103.995 75.8398 103.618L76.4033 99.2975C77.3815 99.4285 78.0226 99.0316 79.114 97.595C80.1816 96.19 81.2798 93.9527 82.4435 91.5832L82.5219 91.423C83.7141 88.9948 84.9811 86.4341 86.7362 84.3444ZM68.8108 91.756C72.9413 89.6838 76.801 87.5248 80.1376 85.1026C80.3311 85.1737 80.5344 85.2492 80.7181 85.3155C79.9596 86.6166 79.2861 87.9737 78.6378 89.2941L78.5941 89.3835C77.6837 91.2372 76.8138 93.009 75.9667 94.3757C73.5559 93.576 71.1695 92.7024 68.8108 91.756ZM27.7176 93.2682L34.3263 90.7615C35.349 92.214 36.3332 94.1099 37.3 96.0788C37.412 96.3068 37.5238 96.5356 37.6357 96.7648C37.8574 97.2186 38.0798 97.6736 38.3048 98.1264L29.6054 100.961L27.7176 93.2682ZM89.7001 96.0788C90.6667 94.1099 91.6511 92.214 92.6738 90.7615L99.2823 93.2682L97.3946 100.961L88.6952 98.1264C88.9107 97.6931 89.1235 97.2574 89.3357 96.8229C89.4573 96.5742 89.5786 96.3261 89.7001 96.0788ZM20.7361 93.7323C20.8404 93.7157 20.9457 93.7061 21.0513 93.7033C21.8163 93.6829 22.766 93.9837 23.5393 94.2947L25.4797 102.2C24.5675 103.005 23.472 103.793 22.5577 103.916C19.9742 104.265 16.0082 103.566 15.275 101.031C14.4493 98.1764 17.6882 94.8253 20.4454 93.8081C20.5399 93.7741 20.6371 93.7488 20.7361 93.7323ZM103.461 94.2947C104.234 93.9837 105.184 93.6829 105.949 93.7033C106.054 93.7061 106.16 93.7157 106.264 93.7326C106.363 93.7488 106.46 93.7741 106.555 93.8081C109.312 94.8253 112.551 98.1764 111.725 101.031C110.992 103.566 107.026 104.265 104.442 103.916C103.528 103.793 102.433 103.005 101.52 102.2L103.461 94.2947Z" fill="#0057FF"/>
</g>
</g>
<defs>
<clipPath id="clip0_3_2">
<rect width="128" height="128" fill="white"/>
</clipPath>
<clipPath id="clip1_3_2">
<rect width="107" height="81" fill="white" transform="translate(10 23)"/>
</clipPath>
</defs>
</svg>
